<mxfile host="app.diagrams.net" modified="2024-01-26T10:28:01.964Z" agent="Mozilla/5.0 (X11; Linux x86_64) AppleWebKit/537.36 (KHTML, like Gecko) Chrome/120.0.0.0 Safari/537.36" version="23.0.2" etag="7OG0JsGqPHKhG3izJL8h" type="github">
  <diagram name="Page-1" id="z-lkbqh_exMyOcj3O0Zb">
    <mxGraphModel>
      <root>
        <mxCell id="0" />
        <mxCell id="1" parent="0" />
      </root>
    </mxGraphModel>
  </diagram>
</mxfile>
